<svg id="Layer_1" data-name="Layer 1" xmlns="http://www.w3.org/2000/svg" viewBox="0 0 60 60"><defs><style>.cls-1{fill:#713fbc;}</style></defs><path class="cls-1" d="M59.69,60H.27V.58H59.69ZM.84,59.42H59.11V1.16H.84Z"/><path class="cls-1" d="M59.31,59.82H.69A.87.87,0,0,1-.18,59V9.44a.87.87,0,0,1,.87-.87H59.31a.87.87,0,0,1,.87.87V59a.87.87,0,0,1-.87.87M1.55,58.08h56.9V10.31H1.55Z"/><path class="cls-1" d="M59.31,10.31H.69a.87.87,0,0,1-.87-.87V.87A.87.87,0,0,1,.69,0H59.31a.87.87,0,0,1,.87.87V9.44a.87.87,0,0,1-.87.87M1.55,8.57h56.9V1.74H1.55Z"/><path class="cls-1" d="M5.2,6A.88.88,0,0,1,4.87,6a1.12,1.12,0,0,1-.29-.19,1.07,1.07,0,0,1-.19-.28,1,1,0,0,1-.06-.34.88.88,0,0,1,0-.16,1.09,1.09,0,0,1,.05-.17l.07-.15.11-.13a.91.91,0,0,1,1.23,0l.11.13A.85.85,0,0,1,6.05,5a.88.88,0,0,1,0,.16A1,1,0,0,1,6,5.49a.87.87,0,0,1-.19.28A.92.92,0,0,1,5.53,6,1,1,0,0,1,5.2,6"/><path class="cls-1" d="M11.42,5.15a.87.87,0,1,1,.87.87.86.86,0,0,1-.87-.87"/><path class="cls-1" d="M19.38,6a.86.86,0,0,1-.61-.25.9.9,0,0,1-.2-.28,1,1,0,0,1-.06-.34.88.88,0,0,1,0-.16,1,1,0,0,1,0-.17l.09-.15a.42.42,0,0,1,.11-.13.85.85,0,0,1,.78-.24.52.52,0,0,1,.16.06.51.51,0,0,1,.15.07.69.69,0,0,1,.13.11l.11.13.08.15a1.09,1.09,0,0,1,.05.17.88.88,0,0,1,0,.16,1,1,0,0,1-.07.34.87.87,0,0,1-.8.53"/><path class="cls-1" d="M30,46.36c-5.87,0-12-2.47-18.28-7.34a54.94,54.94,0,0,1-6.49-6,.89.89,0,0,1,0-1.18C8.9,27.86,18.65,18.55,30,18.55c8.64,0,16.41,5.42,21.4,10,1.49,1.36,2.65,2.57,3.37,3.35a.87.87,0,0,1,0,1.17C51.1,37.05,41.34,46.36,30,46.36M7.06,32.45a51.44,51.44,0,0,0,5.73,5.2c4.09,3.18,10.39,7,17.21,7,10.14,0,19.07-8.08,22.94-12.16-.68-.72-1.6-1.65-2.71-2.66C45.46,25.46,38.09,20.29,30,20.29c-10.14,0-19.08,8.08-22.94,12.16"/><path class="cls-1" d="M30,42.47a12,12,0,1,1,12-12,12,12,0,0,1-12,12m0-22.18A10.23,10.23,0,1,0,40.23,30.51,10.23,10.23,0,0,0,30,20.29"/><path class="cls-1" d="M30,35.93a5.42,5.42,0,1,1,5.42-5.42A5.42,5.42,0,0,1,30,35.93m0-9.1a3.68,3.68,0,1,0,3.68,3.68A3.68,3.68,0,0,0,30,26.83"/></svg>