<?xml version="1.0" encoding="UTF-8"?><svg id="a" xmlns="http://www.w3.org/2000/svg" viewBox="0 0 35 45.9"><defs><style>.b{fill:#663caf;}</style></defs><g><path class="b" d="M31.7,28.97H3.29c-.32,0-.59-.26-.59-.59s.26-.59,.59-.59H31.7c.32,0,.59,.26,.59,.59s-.26,.59-.59,.59Z"/><path class="b" d="M17.5,28.99c-.32,0-.59-.26-.59-.59v-4.83c0-.32,.26-.59,.59-.59s.59,.26,.59,.59v4.83c0,.32-.26,.59-.59,.59Z"/><path class="b" d="M17.5,42.99c-.32,0-.59-.26-.59-.59v-14.02c0-.32,.26-.59,.59-.59s.59,.26,.59,.59v14.02c0,.32-.26,.59-.59,.59Z"/><path class="b" d="M17.5,45.9C7.85,45.9,0,38.05,0,28.4c0-5.63,2.74-10.96,7.32-14.25,.26-.19,.63-.13,.82,.13,.19,.26,.13,.63-.13,.82C3.73,18.18,1.17,23.15,1.17,28.4c0,9,7.32,16.33,16.33,16.33s16.32-7.32,16.33-16.31c0-5.3-2.59-10.3-6.92-13.37-.26-.19-.33-.55-.14-.82,.19-.26,.55-.33,.82-.14,4.64,3.29,7.41,8.63,7.42,14.3h0v.02h0v.02c-.02,9.64-7.86,17.47-17.5,17.47Z"/><g><path class="b" d="M8.43,29.25c-.32,0-.59-.26-.59-.59,0-2.56,.33-4.95,.99-7.11,.09-.31,.42-.48,.73-.39,.31,.1,.48,.42,.39,.73-.62,2.05-.94,4.33-.94,6.77,0,.32-.26,.59-.59,.59Z"/><path class="b" d="M26.57,29.25c-.32,0-.59-.26-.59-.59,0-2.44-.32-4.72-.94-6.77-.09-.31,.08-.64,.39-.73,.31-.09,.64,.08,.73,.39,.66,2.16,.99,4.55,.99,7.11,0,.32-.26,.59-.59,.59Z"/><path class="b" d="M21.52,43.27c-.15,0-.29-.05-.41-.17-.23-.23-.24-.6-.01-.83,2.23-2.29,4.89-6.51,4.89-13.59,0-.32,.26-.59,.59-.59s.59,.26,.59,.59c0,7.48-2.84,11.96-5.22,14.41-.11,.12-.27,.18-.42,.18Z"/><path class="b" d="M13.47,43.26c-.15,0-.31-.06-.42-.18-2.37-2.45-5.21-6.93-5.21-14.4,0-.32,.26-.59,.59-.59s.59,.26,.59,.59c0,7.07,2.65,11.29,4.87,13.58,.23,.23,.22,.6-.01,.83-.11,.11-.26,.17-.41,.17Z"/></g><g><path class="b" d="M27.59,39.23c-.13,0-.26-.04-.37-.13-1.56-1.3-4.52-2.85-9.71-2.85-.32,0-.59-.26-.59-.59s.26-.59,.59-.59c5.54,0,8.75,1.69,10.46,3.12,.25,.21,.28,.58,.08,.83-.12,.14-.28,.21-.45,.21Z"/><path class="b" d="M7.3,39.33c-.17,0-.33-.07-.45-.2-.21-.25-.18-.62,.06-.83,1.71-1.47,4.94-3.22,10.59-3.22,.32,0,.59,.26,.59,.59s-.26,.59-.59,.59c-5.29,0-8.26,1.6-9.82,2.94-.11,.1-.25,.14-.38,.14Z"/></g></g><path class="b" d="M17.36,14.73l-2.62-2.34c-.24-.22-.26-.59-.05-.83,.22-.24,.59-.26,.83-.05l1.71,1.52,2.74-3.35c.2-.25,.57-.29,.83-.08s.29,.57,.08,.82l-3.51,4.3Z"/><path class="b" d="M17.5,22.03l-.17-.05c-4.65-1.37-7.77-5.06-9.02-10.67-.93-4.16-.51-7.87-.49-8.03l.07-.58,.58,.07C13.73,3.39,17.07,.39,17.1,.36l.4-.36,.4,.36s3.37,3.03,8.62,2.41l.58-.07,.07,.58c.02,.16,.44,3.86-.49,8.03-1.25,5.6-4.37,9.29-9.02,10.67l-.17,.05ZM8.95,4c-.17,2.69-.34,14.04,8.55,16.81,8.9-2.77,8.73-14.12,8.56-16.81-4.45,.33-7.5-1.64-8.56-2.44-1.05,.81-4.1,2.77-8.55,2.44Z"/><path class="b" d="M17.5,7.68c2.53,0,4.86,.89,6.72,2.39,.33-1.74,.41-3.37,.41-4.56-3.24-.1-5.7-1.27-7.13-2.16-1.43,.89-3.89,2.06-7.13,2.16,0,1.19,.08,2.82,.41,4.56,1.86-1.5,4.19-2.39,6.72-2.39Z"/></svg>