<?xml version="1.0" encoding="UTF-8"?><svg id="a" xmlns="http://www.w3.org/2000/svg" viewBox="0 0 100 15"><defs><style>.b{fill:#fbb03b;}</style></defs><polygon class="b" points="7.74 .14 10.14 4.98 15.49 5.76 11.62 9.54 12.53 14.86 7.74 12.35 2.96 14.86 3.87 9.54 0 5.76 5.35 4.98 7.74 .14"/><polygon class="b" points="28.87 .14 31.26 4.98 36.62 5.76 32.74 9.54 33.66 14.86 28.87 12.35 24.09 14.86 25 9.54 21.13 5.76 26.48 4.98 28.87 .14"/><polygon class="b" points="50 .14 52.39 4.98 57.74 5.76 53.87 9.54 54.79 14.86 50 12.35 45.21 14.86 46.13 9.54 42.26 5.76 47.61 4.98 50 .14"/><polygon class="b" points="71.13 .14 73.52 4.98 78.87 5.76 75 9.54 75.91 14.86 71.13 12.35 66.34 14.86 67.26 9.54 63.38 5.76 68.74 4.98 71.13 .14"/><polygon class="b" points="92.26 .14 94.65 4.98 100 5.76 96.13 9.54 97.04 14.86 92.26 12.35 87.47 14.86 88.38 9.54 84.51 5.76 89.86 4.98 92.26 .14"/></svg>