<?xml version="1.0" encoding="UTF-8"?><svg id="a" xmlns="http://www.w3.org/2000/svg" viewBox="0 0 60 60"><defs><style>.b{fill:#723fbc;}</style></defs><g><g><path class="b" d="M43.36,44.37H16.53c-.53,0-.96-.43-.96-.96V16.58c0-.53,.43-.96,.96-.96h26.83c.53,0,.96,.43,.96,.96v26.83c0,.53-.43,.96-.96,.96Zm-25.88-1.91h24.92V17.54H17.48v24.92Z"/><g><path class="b" d="M23.21,17.54c-.53,0-.96-.43-.96-.96v-7.68c0-.53,.43-.96,.96-.96s.96,.43,.96,.96v7.68c0,.53-.43,.96-.96,.96Z"/><path class="b" d="M23.21,9.86h-5.3c-.53,0-.96-.43-.96-.96s.43-.96,.96-.96h5.3c.53,0,.96,.43,.96,.96s-.43,.96-.96,.96Z"/><path class="b" d="M15.31,12.46c-1.96,0-3.56-1.6-3.56-3.56s1.6-3.56,3.56-3.56,3.56,1.6,3.56,3.56-1.6,3.56-3.56,3.56Zm0-5.21c-.91,0-1.65,.74-1.65,1.65s.74,1.65,1.65,1.65,1.65-.74,1.65-1.65-.74-1.65-1.65-1.65Z"/></g><g><path class="b" d="M36.43,17.54c-.53,0-.96-.43-.96-.96v-7.68c0-.53,.43-.96,.96-.96s.96,.43,.96,.96v7.68c0,.53-.43,.96-.96,.96Z"/><path class="b" d="M41.73,9.86h-5.3c-.53,0-.96-.43-.96-.96s.43-.96,.96-.96h5.3c.53,0,.96,.43,.96,.96s-.43,.96-.96,.96Z"/><path class="b" d="M44.34,12.46c-1.96,0-3.56-1.6-3.56-3.56s1.6-3.56,3.56-3.56,3.56,1.6,3.56,3.56-1.6,3.56-3.56,3.56Zm0-5.21c-.91,0-1.65,.74-1.65,1.65s.74,1.65,1.65,1.65,1.65-.74,1.65-1.65-.74-1.65-1.65-1.65Z"/></g><g><path class="b" d="M29.82,6.75c-1.96,0-3.56-1.6-3.56-3.56s1.6-3.56,3.56-3.56,3.56,1.6,3.56,3.56-1.6,3.56-3.56,3.56Zm0-5.21c-.91,0-1.65,.74-1.65,1.65s.74,1.65,1.65,1.65,1.65-.74,1.65-1.65-.74-1.65-1.65-1.65Z"/><path class="b" d="M29.82,17.04c-.53,0-.96-.43-.96-.96V5.79c0-.53,.43-.96,.96-.96s.96,.43,.96,.96v10.29c0,.53-.43,.96-.96,.96Z"/></g><g><g><path class="b" d="M16.53,37.56h-7.68c-.53,0-.96-.43-.96-.96s.43-.96,.96-.96h7.68c.53,0,.96,.43,.96,.96s-.43,.96-.96,.96Z"/><path class="b" d="M8.84,42.86c-.53,0-.96-.43-.96-.96v-5.3c0-.53,.43-.96,.96-.96s.96,.43,.96,.96v5.3c0,.53-.43,.96-.96,.96Z"/><path class="b" d="M8.84,48.07c-1.96,0-3.56-1.6-3.56-3.56s1.6-3.56,3.56-3.56,3.56,1.6,3.56,3.56-1.6,3.56-3.56,3.56Zm0-5.21c-.91,0-1.65,.74-1.65,1.65s.74,1.65,1.65,1.65,1.65-.74,1.65-1.65-.74-1.65-1.65-1.65Z"/></g><g><path class="b" d="M16.53,24.35h-7.68c-.53,0-.96-.43-.96-.96s.43-.96,.96-.96h7.68c.53,0,.96,.43,.96,.96s-.43,.96-.96,.96Z"/><path class="b" d="M8.84,24.35c-.53,0-.96-.43-.96-.96v-5.3c0-.53,.43-.96,.96-.96s.96,.43,.96,.96v5.3c0,.53-.43,.96-.96,.96Z"/><path class="b" d="M8.84,19.05c-1.96,0-3.56-1.6-3.56-3.56s1.6-3.56,3.56-3.56,3.56,1.6,3.56,3.56-1.6,3.56-3.56,3.56Zm0-5.21c-.91,0-1.65,.74-1.65,1.65s.74,1.65,1.65,1.65,1.65-.74,1.65-1.65-.74-1.65-1.65-1.65Z"/></g><g><path class="b" d="M3.13,33.56c-1.96,0-3.56-1.6-3.56-3.56s1.6-3.56,3.56-3.56,3.56,1.6,3.56,3.56-1.6,3.56-3.56,3.56Zm0-5.21c-.91,0-1.65,.74-1.65,1.65s.74,1.65,1.65,1.65,1.65-.74,1.65-1.65-.74-1.65-1.65-1.65Z"/><path class="b" d="M16.03,30.95H5.74c-.53,0-.96-.43-.96-.96s.43-.96,.96-.96h10.29c.53,0,.96,.43,.96,.96s-.43,.96-.96,.96Z"/></g></g><g><g><path class="b" d="M36.55,52.06c-.53,0-.96-.43-.96-.96v-7.68c0-.53,.43-.96,.96-.96s.96,.43,.96,.96v7.68c0,.53-.43,.96-.96,.96Z"/><path class="b" d="M41.85,52.06h-5.3c-.53,0-.96-.43-.96-.96s.43-.96,.96-.96h5.3c.53,0,.96,.43,.96,.96s-.43,.96-.96,.96Z"/><path class="b" d="M44.46,54.66c-1.96,0-3.56-1.6-3.56-3.56s1.6-3.56,3.56-3.56,3.56,1.6,3.56,3.56-1.6,3.56-3.56,3.56Zm0-5.21c-.91,0-1.65,.74-1.65,1.65s.74,1.65,1.65,1.65,1.65-.74,1.65-1.65-.74-1.65-1.65-1.65Z"/></g><g><path class="b" d="M23.33,52.06c-.53,0-.96-.43-.96-.96v-7.68c0-.53,.43-.96,.96-.96s.96,.43,.96,.96v7.68c0,.53-.43,.96-.96,.96Z"/><path class="b" d="M23.33,52.06h-5.3c-.53,0-.96-.43-.96-.96s.43-.96,.96-.96h5.3c.53,0,.96,.43,.96,.96s-.43,.96-.96,.96Z"/><path class="b" d="M15.43,54.66c-1.96,0-3.56-1.6-3.56-3.56s1.6-3.56,3.56-3.56,3.56,1.6,3.56,3.56-1.6,3.56-3.56,3.56Zm0-5.21c-.91,0-1.65,.74-1.65,1.65s.74,1.65,1.65,1.65,1.65-.74,1.65-1.65-.74-1.65-1.65-1.65Z"/></g><g><path class="b" d="M29.94,60.37c-1.96,0-3.56-1.6-3.56-3.56s1.6-3.56,3.56-3.56,3.56,1.6,3.56,3.56-1.6,3.56-3.56,3.56Zm0-5.21c-.91,0-1.65,.74-1.65,1.65s.74,1.65,1.65,1.65,1.65-.74,1.65-1.65-.74-1.65-1.65-1.65Z"/><path class="b" d="M29.94,55.16c-.53,0-.96-.43-.96-.96v-10.29c0-.53,.43-.96,.96-.96s.96,.43,.96,.96v10.29c0,.53-.43,.96-.96,.96Z"/></g></g><g><g><path class="b" d="M51.16,24.35h-7.68c-.53,0-.96-.43-.96-.96s.43-.96,.96-.96h7.68c.53,0,.96,.43,.96,.96s-.43,.96-.96,.96Z"/><path class="b" d="M51.16,24.35c-.53,0-.96-.43-.96-.96v-5.3c0-.53,.43-.96,.96-.96s.96,.43,.96,.96v5.3c0,.53-.43,.96-.96,.96Z"/><path class="b" d="M51.16,19.05c-1.96,0-3.56-1.6-3.56-3.56s1.6-3.56,3.56-3.56,3.56,1.6,3.56,3.56-1.6,3.56-3.56,3.56Zm0-5.21c-.91,0-1.65,.74-1.65,1.65s.74,1.65,1.65,1.65,1.65-.74,1.65-1.65-.74-1.65-1.65-1.65Z"/></g><g><path class="b" d="M51.16,37.56h-7.68c-.53,0-.96-.43-.96-.96s.43-.96,.96-.96h7.68c.53,0,.96,.43,.96,.96s-.43,.96-.96,.96Z"/><path class="b" d="M51.16,42.86c-.53,0-.96-.43-.96-.96v-5.3c0-.53,.43-.96,.96-.96s.96,.43,.96,.96v5.3c0,.53-.43,.96-.96,.96Z"/><path class="b" d="M51.16,48.08c-1.96,0-3.56-1.6-3.56-3.56s1.6-3.56,3.56-3.56,3.56,1.6,3.56,3.56-1.6,3.56-3.56,3.56Zm0-5.21c-.91,0-1.65,.74-1.65,1.65s.74,1.65,1.65,1.65,1.65-.74,1.65-1.65-.74-1.65-1.65-1.65Z"/></g><g><path class="b" d="M56.87,33.56c-1.96,0-3.56-1.6-3.56-3.56s1.6-3.56,3.56-3.56,3.56,1.6,3.56,3.56-1.6,3.56-3.56,3.56Zm0-5.21c-.91,0-1.65,.74-1.65,1.65s.74,1.65,1.65,1.65,1.65-.74,1.65-1.65-.74-1.65-1.65-1.65Z"/><path class="b" d="M54.26,30.96h-10.29c-.53,0-.96-.43-.96-.96s.43-.96,.96-.96h10.29c.53,0,.96,.43,.96,.96s-.43,.96-.96,.96Z"/></g></g></g><path class="b" d="M37.72,38.55h-15.44c-.53,0-.96-.43-.96-.96v-15.44c0-.53,.43-.96,.96-.96h15.44c.53,0,.96,.43,.96,.96v15.44c0,.53-.43,.96-.96,.96Zm-14.49-1.91h13.53v-13.53h-13.53v13.53Z"/></g><rect class="b" x="36.13" y="18.45" width="3.19" height="1.91"/></svg>