<svg id="Layer_1" data-name="Layer 1" xmlns="http://www.w3.org/2000/svg" viewBox="0 0 60 60"><defs><style>.cls-1{fill:#713fbc;}</style></defs><path class="cls-1" d="M34.88,39.5a.88.88,0,0,1-.62-.25l-7.81-7.78a3,3,0,0,1,0-4.18,3,3,0,0,1,4.18,0l7.81,7.78a.87.87,0,1,1-1.23,1.23L29.4,28.52a1.22,1.22,0,0,0-1.72,1.72L35.49,38a.88.88,0,0,1-.61,1.49"/><path class="cls-1" d="M37.69,36.42a.85.85,0,0,1-.61-.25l-6-5.94a3,3,0,0,1,4.18-4.18l6.07,6.1a.88.88,0,0,1,0,1.23.87.87,0,0,1-1.23,0l-6.07-6.1A1.21,1.21,0,0,0,32.34,29l6,5.93a.88.88,0,0,1-.62,1.49"/><path class="cls-1" d="M42,54.41a.9.9,0,0,1-.62-.25l-.05,0a4.89,4.89,0,0,0-2.87-1.38c-2.7-.31-7.63-1.41-10.33-5.21-.49-.68-3.62-2.47-6.37-3.81l-.13-.08a2.45,2.45,0,0,1-.53-3.41c1.49-2,4.21-.86,5.67-.22,0,0,1.21.46,2.48.79L17.28,28.2A3,3,0,0,1,21.48,24l14,14a.86.86,0,0,1,0,1.22.87.87,0,0,1-1.23,0l-14-14a1.26,1.26,0,0,0-1.72,0,1.22,1.22,0,0,0-.36.86,1.2,1.2,0,0,0,.36.86l12.79,13.5a1.36,1.36,0,0,1-1.21,2.28,24.12,24.12,0,0,1-4-1.15c-2.44-1.07-3.2-.92-3.61-.36a.71.71,0,0,0,.11.94c1.17.57,6,3,6.93,4.32,2.32,3.26,6.71,4.21,9.12,4.49a6.57,6.57,0,0,1,3.3,1.35l9.56-9.56-1-1A5.4,5.4,0,0,1,49,39a8.94,8.94,0,0,0-1.66-4.24l-8.86-8.86a1.22,1.22,0,0,0-1.72,1.72l4.59,4.56a.87.87,0,1,1-1.22,1.23l-4.6-4.56a3,3,0,0,1,0-4.18,2.86,2.86,0,0,1,.78-.56,3,3,0,0,1,3.4.56l8.86,8.86c1.19,1.19,1.82,3.45,2.14,5.14a3.71,3.71,0,0,0,1,1.93l1.6,1.6a.87.87,0,0,1,.26.62.83.83,0,0,1-.26.61L42.58,54.15a.87.87,0,0,1-.61.26"/><path class="cls-1" d="M44.67,60a.86.86,0,0,1-.62-.25L39.91,55.6a.83.83,0,0,1-.26-.61.85.85,0,0,1,.26-.62L53.55,40.73a.89.89,0,0,1,1.23,0l4.14,4.14a.87.87,0,0,1,.26.62.83.83,0,0,1-.26.61L45.28,59.75a.85.85,0,0,1-.61.25m-2.92-5,2.92,2.91L57.08,45.49l-2.92-2.92Z"/><path class="cls-1" d="M29.92,52.11H1.69a.87.87,0,0,1-.87-.87V8.41a.87.87,0,0,1,.87-.87H29.92a.87.87,0,0,1,.87.87V27.68a.87.87,0,1,1-1.73,0V9.28H2.56V50.37h26.5V48.28a.87.87,0,1,1,1.73,0v3a.87.87,0,0,1-.87.87"/><path class="cls-1" d="M29.92,9.28H1.69a.87.87,0,0,1-.87-.87v-4A4.44,4.44,0,0,1,5.25,0H26.37a4.43,4.43,0,0,1,4.42,4.43v4a.87.87,0,0,1-.87.87M2.56,7.54h26.5V4.43a2.7,2.7,0,0,0-2.69-2.69H5.25A2.7,2.7,0,0,0,2.56,4.43Z"/><path class="cls-1" d="M26.37,59.47H5.25A4.43,4.43,0,0,1,.82,55.05V51.24a.87.87,0,0,1,.87-.87H29.92a.87.87,0,0,1,.87.87v3.81a4.42,4.42,0,0,1-4.42,4.42M2.56,52.11v2.94a2.69,2.69,0,0,0,2.69,2.68H26.37a2.69,2.69,0,0,0,2.69-2.68V52.11Z"/><path class="cls-1" d="M18.06,5.51h-4.5a.87.87,0,0,1,0-1.74h4.5a.87.87,0,0,1,0,1.74"/><path class="cls-1" d="M14.64,22.73H5.93a.87.87,0,0,1-.87-.87V13.15a.87.87,0,0,1,.87-.87h8.71a.87.87,0,0,1,.87.87v8.71a.87.87,0,0,1-.87.87M6.8,21h7V14h-7Z"/><path class="cls-1" d="M14.64,35H5.93a.87.87,0,0,1-.87-.87V25.4a.87.87,0,0,1,.87-.87h8.71a.87.87,0,0,1,.87.87v8.72a.87.87,0,0,1-.87.87M6.8,33.25h7v-7h-7Z"/><path class="cls-1" d="M14.64,47.24H5.93a.87.87,0,0,1-.87-.87V37.66a.87.87,0,0,1,.87-.87h8.71a.87.87,0,0,1,.87.87v8.71a.87.87,0,0,1-.87.87M6.8,45.5h7v-7h-7Z"/></svg>